<?xml version="1.0" encoding="UTF-8" standalone="no"?>
<!-- Created with Inkscape (http://www.inkscape.org/) -->

<svg
   xmlns:dc="http://purl.org/dc/elements/1.1/"
   xmlns:cc="http://creativecommons.org/ns#"
   xmlns:rdf="http://www.w3.org/1999/02/22-rdf-syntax-ns#"
   xmlns:svg="http://www.w3.org/2000/svg"
   xmlns="http://www.w3.org/2000/svg"
   xmlns:sodipodi="http://sodipodi.sourceforge.net/DTD/sodipodi-0.dtd"
   xmlns:inkscape="http://www.inkscape.org/namespaces/inkscape"
   width="210mm"
   height="297mm"
   viewBox="0 0 210 297"
   version="1.1"
   id="svg8"
   inkscape:version="0.92.1 r15371"
   sodipodi:docname="mouse.svg">
  <defs
     id="defs2" />
  <sodipodi:namedview
     id="base"
     pagecolor="#ffffff"
     bordercolor="#666666"
     borderopacity="1.0"
     inkscape:pageopacity="0.0"
     inkscape:pageshadow="2"
     inkscape:zoom="4"
     inkscape:cx="441.02524"
     inkscape:cy="653.99518"
     inkscape:document-units="mm"
     inkscape:current-layer="layer1"
     showgrid="false"
     inkscape:window-width="1920"
     inkscape:window-height="1001"
     inkscape:window-x="-9"
     inkscape:window-y="-9"
     inkscape:window-maximized="1"
     showguides="false" />
  <metadata
     id="metadata5">
    <rdf:RDF>
      <cc:Work
         rdf:about="">
        <dc:format>image/svg+xml</dc:format>
        <dc:type
           rdf:resource="http://purl.org/dc/dcmitype/StillImage" />
        <dc:title></dc:title>
      </cc:Work>
    </rdf:RDF>
  </metadata>
  <g
     inkscape:label="圖層 1"
     inkscape:groupmode="layer"
     id="layer1">
    <path
       id="path3691"
       style="fill:#000000;stroke-width:0.80000001"
       d="m 499.26562,368.70898 c -0.25724,-0.0595 -5.9469,0.14865 -6.70703,0.17188 -1.76503,0.45178 -3.65253,1.23106 -5.03711,2.60156 -5.85898,4.09465 -2.23134,7.57514 -0.75781,5.67969 1.48218,-1.90659 6.42318,-3.98905 7.71485,-3.70703 1.57319,0.0592 4.28618,-0.16569 5.37695,0.88086 1.34362,1.28909 2.03727,1.91726 2.85742,7.84961 4.15234,0.31884 4.33646,8.56709 6.34766,12.99609 1.01068,2.56917 6.13061,3.7536 5.33007,5.26367 0,0 -4.05312,3.49741 -8.0957,4.20313 -2.52022,1.05297 -3.71411,0.76844 -3.49414,3.01367 0.18981,1.93912 1.608,3.36064 3.11524,3.71289 3.32307,0.77666 4.92075,4.65082 5.01562,12.16406 0.10719,8.49033 -1.08646,12.10251 -4.8418,14.6543 -3.02056,2.05255 -6.08712,2.57533 -6.94726,1.18359 -0.27194,-0.43982 -1.37324,-0.80078 -2.44727,-0.80078 -2.46625,0 -3.27298,2.95731 -0.88867,4.62695 4.02025,2.8159 9.28878,2.49071 15.74414,-4.09765 3.6782,-3.75401 4.04807,-7.05078 4.02539,-9.78516 -0.0249,-2.97694 -5.72717,-19.32755 0.0723,-21.71875 0,0 6.56144,-4.74248 2.77148,-8.36914 l -3.1543,-2.75 c 0.0887,-0.0197 -0.74757,-0.71345 -3.80664,-7.13672 0.61151,-3.15341 -1.72748,-8.01617 -5.16601,-10.63867 0,0 0.75344,-2.52994 -0.78516,-4.85156 -1.53857,-2.32159 -2.83298,-4.3577 -6.24219,-5.14649 z m 83.79883,2.30079 c -1.58554,0.0601 -2.72777,1.446 -2.80468,3.79492 -0.20372,6.21803 -0.51761,9.25294 -1.38282,13.37304 -4.43285,21.10916 -8.85352,38.77287 -9.78125,39.08204 -0.51076,0.17026 -3.31896,2.6962 -6.24023,5.61328 -2.92127,2.91711 -6.03212,5.89716 -6.91211,6.62109 -0.88003,0.72393 -2.80081,2.80627 -4.26953,4.62891 -1.46876,1.8226 -6.68834,5.95765 -11.59961,9.18945 -4.91127,3.2318 -11.19429,7.89943 -13.96094,10.37109 -2.76661,2.47163 -6.11487,3.20897 -6.80664,3.10352 -7.9223,-1.20873 -8.79687,-4.81445 -8.79687,-4.81445 -0.26608,-0.68913 0.84375,-2.27676 0.84375,-3.37305 0,-0.72597 2.52335,-8.0311 4.05859,-10.51172 0.59805,-2.74543 0.8175,-7.46858 1.99023,-10.86719 0.72627,-3.4879 -0.71872,-5.38427 -2.37695,-1.13476 -0.76048,5.85286 -2.3157,7.42645 -3.20117,10.15625 -1.71613,5.29066 -1.05936,3.01402 -2.74805,8.45703 -0.66519,2.14397 -2.41774,2.17587 -5.57422,4.96289 -4.08294,3.60506 -1.50009,7.64433 -2.4082,8.79883 -2.32819,2.95982 -9.98914,7.87803 -11.79492,7.57226 -0.83142,-0.14071 -2.46843,0.25565 -3.63672,0.88086 -1.93758,1.03688 -2.28642,0.98458 -3.97266,-0.59961 -3.82461,-3.593 -5.74328,-1.40546 -4.92773,5.6211 0.48453,4.17505 1.01286,5.43282 3.20117,7.62109 1.44132,1.44136 3.28757,2.64139 4.10156,2.66406 2.22569,0.0666 4.86467,3.96981 5.48633,8.11524 0.49663,3.31192 0.3783,3.73838 -1.16601,4.22851 -2.18669,0.69404 -4.04102,-0.81738 -4.04102,-3.29297 0,-1.19924 -1.62757,-3.67925 -4.37695,-6.66992 -2.40718,-2.61834 -4.60023,-5.76609 -4.875,-6.99218 -0.27462,-1.22778 -1.0682,-3.79908 -1.76368,-5.71485 -1.03738,-2.86261 -1.08177,-3.77276 -0.25,-5.10742 0.8205,-1.31607 0.81058,-1.74505 -0.0234,-2.26367 -1.8209,-1.12528 -8.47642,-1.70145 -10.02149,-0.86719 -0.81929,0.44239 -2.12062,0.99822 -2.89062,1.23633 -0.83611,0.25878 -1.40039,1.22598 -1.40039,2.40039 0,2.70361 2.14509,2.97341 5.78515,0.72656 1.64126,-1.01306 3.29749,-1.8418 3.68164,-1.8418 0.384,0 0.53304,1.72811 0.33008,3.83789 -0.72801,7.57652 3.86892,16.19653 9.54297,17.89649 4.0834,1.22347 5.00093,2.94715 3.76563,7.07031 -0.74291,2.4796 -1.35467,3.19531 -2.73243,3.19531 -0.97647,0 -2.22371,-0.54115 -2.77148,-1.20117 -0.54773,-0.65998 -1.88098,-1.19922 -2.96094,-1.19922 -2.38299,0 -6.64062,-4.03968 -6.64062,-6.30078 0,-0.89314 0.40755,-2.51714 0.90429,-3.60742 0.82251,-1.8051 0.57176,-2.30809 -2.80468,-5.63672 -2.03932,-2.01044 -4.1799,-3.65625 -4.75586,-3.65625 -0.57596,0 -1.64841,-1.25882 -2.38282,-2.79883 -0.73264,-1.54 -1.87975,-2.80078 -2.54687,-2.80078 -2.88627,0 -0.80065,-5.92808 2.36523,-6.72265 1.49057,-0.37414 2.02149,-1.03529 2.02149,-2.51758 0,-1.1054 0.53924,-2.21748 1.19922,-2.47071 2.5358,-0.97135 0.65308,-7.48828 -2.16407,-7.48828 -1.71849,0 -4.63476,-4.09703 -4.63476,-6.51562 0,-1.66927 -0.45142,-2.55278 -1.4375,-2.81055 -1.20873,-0.31608 -1.43075,-1.22701 -1.39258,-5.72461 0.0249,-2.94202 -0.24219,-5.97999 -0.5918,-6.75 -0.76146,-1.67705 -3.4312,-1.85583 -4.03906,-0.27344 -0.35508,0.92527 -1.02616,0.83389 -3.74804,-0.51367 l -3.31446,-1.64062 0.38672,-5.28516 c 0.21286,-2.90736 0.64245,-6.45673 0.95313,-7.88672 0.4939,-2.27308 0.35873,-2.59961 -1.07813,-2.59961 -2.60825,0 -2.85309,-1.50433 -0.60937,-3.74804 2.64559,-2.64567 2.6071,-3.7609 -0.19727,-5.75782 -2.48375,-1.7684 -3.07262,-1.8772 -10.16797,-1.88476 -6.13126,-0.006 -11.90224,2.76193 -15.78515,7.5664 -3.88989,4.81274 -4.44151,6.11761 -5.03516,11.91211 -0.74718,7.29275 2.09746,16.35677 7.15625,22.80079 2.12137,2.70221 3.7035,5.56377 3.71484,6.71093 0.009,1.1 0.90203,5.41961 1.98438,9.59961 1.44714,5.58879 1.97303,9.73296 1.98437,15.65821 0.0191,9.59187 -1.13224,13.54483 -5.57617,19.14257 -1.74656,2.19999 -5.25604,7.05884 -7.79883,10.79883 -21.47013,31.57901 -29.38595,39.88546 -36.3457,38.13867 -2.92685,-0.73459 -21.73069,-20.3925 -40.26367,-42.09179 -2.20001,-2.57583 -6.87844,-8.5759 -10.39844,-13.33399 -3.52,-4.75804 -8.24254,-10.64529 -10.49414,-13.08203 -2.25159,-2.43674 -5.6712,-6.30705 -7.59961,-8.60156 -1.9284,-2.29451 -7.04835,-8.02718 -11.37695,-12.73828 -12.79917,-13.93021 -20.46595,-24.73092 -20.50586,-28.89063 -0.0289,-3.0065 0.55074,-3.14664 4.60742,-1.11133 1.63247,0.81903 5.30797,1.71963 8.16797,2.00196 5.38137,0.53095 32.56209,7.69324 43.33203,11.41797 6.29641,2.17761 10.26758,4.97681 10.26758,7.23632 0,0.70398 -0.77569,2.83434 -1.72461,4.73438 -1.42459,2.85245 -1.54609,3.66945 -0.70117,4.6875 0.5628,0.67812 1.63474,1.23437 2.38281,1.23437 2.00893,0 14.44336,-13.03313 14.44336,-15.13867 0,-3.06089 -3.23188,-5.27014 -10.41992,-7.12109 -3.72881,-0.96015 -9.29891,-2.48291 -12.37891,-3.38281 -3.08,-0.89991 -7.22117,-1.83145 -9.20117,-2.07032 -3.46672,-0.41813 -23.27567,-6.60024 -33.20117,-10.36132 -2.64066,-1.00063 -7.94801,-2.7309 -11.79493,-3.84571 -3.84691,-1.11477 -8.05804,-2.81447 -9.35742,-3.77343 -2.19717,-1.62445 -2.49713,-1.65863 -4.27734,-0.49219 -3.36708,2.20618 -18.16797,17.29537 -18.16797,18.52148 0,0.64989 -1.33799,2.18949 -2.97266,3.42188 -4.10556,3.0952 -12.22851,11.13096 -12.22851,12.09765 0,0.43711 1.24577,2.17841 2.76758,3.86914 1.5218,1.6907 4.82239,5.41539 7.33398,8.27539 2.51159,2.85997 10.17465,11.02346 17.03125,18.14258 6.8566,7.11912 13.84274,14.58871 15.52344,16.59961 1.68069,2.01086 3.66108,3.65625 4.40039,3.65625 0.7393,0 2.33327,-1.23978 3.54297,-2.75586 2.25505,-2.82621 20.84369,-15.64258 22.6875,-15.64258 0.95788,0 11.58701,11.87607 16.64453,18.59766 2.22284,2.95419 2.2355,3.02924 0.83008,5.19922 -0.78442,1.21115 -2.69439,3.28156 -4.24219,4.60156 -1.54779,1.32 -4.99688,4.30023 -7.66602,6.62305 -2.66914,2.32278 -6.55416,5.38361 -8.63281,6.80078 -2.07866,1.41721 -3.78749,3.07166 -3.79883,3.67578 -0.0206,1.09414 4.30096,7.29413 10.38672,14.90039 1.76023,2.19999 4.59029,5.80001 6.28906,8 1.69877,2.20003 3.90305,4.72158 4.89844,5.60156 0.99539,0.87999 3.71674,4.16965 6.04688,7.31055 2.33012,3.1409 5.25293,6.78307 6.49609,8.0957 1.24316,1.31267 3.46631,3.70043 4.93945,5.30469 l 2.67774,2.91602 5.32226,-0.50586 c 4.66378,-0.4441 6.11375,-1.02764 11.72266,-4.72266 10.79011,-7.10831 12.48645,-7.74577 21.68164,-8.13476 5.93672,-0.25115 8.92331,-0.0325 10.9082,0.79687 1.73348,0.72431 5.78429,1.16338 11.07227,1.20117 7.54046,0.0531 8.47022,0.22405 9.73633,1.78711 0.77,0.95063 1.40039,2.4434 1.40039,3.31836 0,1.80911 -4.94353,10.36156 -7.83789,13.56055 -1.63684,1.80896 -1.84313,2.62173 -1.375,5.39258 0.36019,2.13199 0.076,5.135 -0.81836,8.66992 -1.12706,4.45466 -1.25034,6.96091 -0.70703,14.20898 1.10385,14.72674 0.88459,17.68255 -1.9375,26.08985 -2.78079,8.28412 -4.82332,11.81921 -11.49414,19.91015 -4.44193,5.38753 -5.4221,6.03773 -16.42188,10.90039 -7.54601,3.33585 -10.1985,6.06349 -16.36523,16.81836 -3.89779,6.79779 -6.24219,13.94931 -6.24219,19.04102 0,1.61061 -0.6874,4.43736 -1.52734,6.2832 -1.38531,3.04434 -1.53739,5.56331 -1.625,27.11524 -0.077,18.92832 -0.33441,24.33144 -1.27149,26.57422 -1.4792,3.53852 -1.64098,18.08364 -0.2168,19.50781 h 0.002 c 0.60038,0.60056 3.58102,0.95898 7.95898,0.95898 7.98104,0 9.04506,-0.72058 7.66992,-5.20117 -0.66666,-2.17217 -0.51599,-2.96373 0.9375,-4.92969 2.23722,-3.026 4.05236,-9.90784 4.06446,-15.41601 0.0117,-5.33439 2.53415,-11.05185 5.16797,-11.71289 2.31653,-0.58145 7.40221,1.53416 10.2539,4.26562 3.28851,3.14967 4.01497,6.93997 3.02735,15.79688 -0.46205,4.14372 -0.83985,7.70417 -0.83985,7.91015 0,1.08941 2.76359,2.88867 4.4375,2.88867 3.22753,0 4.2642,-2.71568 4.03516,-10.57226 -0.11165,-3.83433 0.047,-7.37721 0.35351,-7.87305 1.28141,-2.07341 11.4313,-3.90896 21.74805,-3.93164 8.35344,-0.0191 10.7181,-0.29571 13.20117,-1.53906 3.43321,-1.71897 11.56518,-1.52936 14.10547,0.32812 0.78611,0.57483 2.32019,3.60388 3.4082,6.73243 1.81425,5.21692 1.87547,5.83403 0.74414,7.44921 -1.91718,2.73963 -1.58778,6.0794 0.70704,7.125 3.63046,1.65415 5.8161,0.33335 7.15039,-4.32031 1.60845,-5.61037 2.42326,-14.91986 1.52343,-17.39844 -1.19183,-3.28301 -0.30006,-4.8359 3.89454,-6.77929 3.12926,-1.44983 4.57575,-1.69877 6.8496,-1.18555 4.86766,1.09784 5.9497,2.85964 6.12696,9.97656 0.17117,6.87825 -0.0497,6.58721 6.51367,8.65821 4.75313,1.49979 8.27428,0.97191 9.19531,-1.37696 0.58345,-1.48811 0.47888,-14.64699 -0.36718,-46.89453 -0.513,-19.51419 -1.59927,-22.67313 -11.25,-32.79883 -2.72637,-2.86 -5.17451,-6.11101 -5.43946,-7.22461 -0.57551,-2.41991 1.86655,-8.02641 6.87696,-15.78711 1.91196,-2.96245 4.52995,-7.36906 5.8125,-9.78906 1.28086,-2.42003 5.96879,-7.24257 8.87109,-11.64258 7.59961,-11.52121 17.84876,-24.13739 19.57226,-28.58789 6.17409,-15.94326 8.142,-20.32518 14.20704,-42.82421 4.51975,-16.76723 9.11136,-42.58867 6.32812,-56.03907 -0.49251,-12.97829 -2.35974,-16.42249 -0.006,-19.8789 1.21002,-1.76705 7.06002,-7.81837 13,-13.44922 7.31925,-6.93827 12.18508,-12.32447 15.09766,-16.70899 2.36371,-3.55831 5.64323,-7.90799 7.28906,-9.66797 1.64583,-1.76001 4.54444,-5.36 6.43945,-8 1.89498,-2.64 4.50427,-6.02998 5.79883,-7.53125 2.06007,-2.38892 2.30847,-3.20178 1.99024,-6.51367 -0.20002,-2.08131 -1.1407,-5.27277 -2.08985,-7.09375 -0.94911,-1.82097 -1.72656,-3.74796 -1.72656,-4.28125 0,-0.9555 4.47477,-13.33009 10.47852,-28.98047 4.43412,-11.56316 6.52949,-23.49717 4.02929,-22.96875 -0.60121,0.12707 -1.95449,-0.33525 -3.00781,-1.02539 -0.84592,-0.55426 -1.65821,-0.80075 -2.37891,-0.77343 z m 1.30664,1.34961 c 0.12628,0 0.25391,0.12499 0.25391,0.375 v 0.89843 c 0.0702,-0.20214 0.226,-0.31522 0.40039,-0.28515 0.17265,0.0297 0.35187,0.18841 0.44727,0.50586 l -0.004,-0.002 c 0.0461,0.15311 0.0948,0.30479 0.13672,0.45899 10e-4,0.004 0.0151,0.10748 0.0293,0.16992 V 374.25 c 0,-0.25 0.12568,-0.375 0.25195,-0.375 0.12626,0 0.25195,0.125 0.25195,0.375 h 0.002 v 0.44531 c 0.002,0.002 0.003,0.006 0.006,0.008 0.0175,-0.21192 0.13153,-0.32421 0.24805,-0.32421 0.12628,0 0.25195,0.125 0.25195,0.375 v 0.10351 c 0.21205,0.0392 0.39783,0.27892 0.35938,0.70313 -0.007,0.0795 -0.0128,0.089 -0.0176,0.14453 0.11069,-0.34914 0.21456,-0.70044 0.33399,-1.04688 0.16289,-0.4727 0.64156,-0.3086 0.47851,0.16407 -0.28082,0.81436 -0.54005,1.63506 -0.78516,2.46093 -0.0847,0.28483 -0.17734,0.56687 -0.24804,0.85547 -0.0525,0.21392 0.0161,0.47865 -0.1211,0.65039 v 0.13282 c -0.0866,-0.0224 -0.20002,-0.0164 -0.29882,-0.0254 -0.0706,0.005 -0.14374,0.009 -0.20704,0.0254 v -0.13282 -0.43164 c -0.0557,0.0487 -0.0907,0.0755 -0.15624,0.11133 0.0996,0.12839 -0.1201,0.27903 -0.35547,0.41406 -9.6e-4,0.008 0.008,0.0292 0,0.0274 -0.009,-0.003 -0.0164,-0.008 -0.0254,-0.01 -0.0607,0.0349 -0.0997,0.0649 -0.14649,0.0957 0.055,0.007 0.10936,0.0154 0.16406,0.0234 -0.0616,0.12699 -0.0144,0.063 -0.10742,0.14649 -0.0193,0.0183 -0.006,0.0233 0.008,0.0273 -0.0846,-0.006 -0.13092,-0.018 -0.16015,-0.0332 -0.008,0.0182 -0.004,0.0441 -0.0137,0.0605 0.0142,0.051 0.0188,0.0919 -0.0215,0.0879 -0.0206,-0.002 -0.0339,-0.009 -0.0527,-0.0117 -0.0902,0.0733 -0.22616,0.1 -0.45117,0.043 -0.1141,-0.0302 -0.0235,-0.23559 -0.0195,-0.35351 v -0.002 c -0.054,0.007 0.10186,-0.0113 -0.0703,0.0117 -0.0508,-0.0442 -0.10052,-0.0897 -0.15234,-0.13281 -0.0503,0.0819 -0.11155,0.15718 -0.16797,0.23633 -0.15723,-0.048 -0.36721,-0.0175 -0.47266,-0.14258 -0.35802,-0.42699 -0.032,-1.11553 0.17969,-1.50976 v -0.0566 -1.84765 -2.80859 c 0,-0.25001 0.12568,-0.37502 0.25195,-0.375 z m 1.08594,6.63671 c -0.0177,-0.002 -0.035,-0.006 -0.0527,-0.008 -0.004,0.0278 -0.0132,0.0518 -0.0195,0.0781 0.0236,-0.0233 0.0312,-0.0433 0.0723,-0.0703 z m -2.59961,-6.13281 c 0.12627,0 0.25391,0.125 0.25391,0.375 v 0.42969 c 0.19495,0.063 0.35827,0.29521 0.32226,0.69336 -0.0381,0.42187 -0.0512,0.49366 -0.0644,0.90429 -0.008,0.18029 0.0237,0.28758 -0.0508,0.4629 -0.0571,0.13291 -0.22009,0.29724 -0.12109,0.19531 -0.016,0.0187 -0.033,0.036 -0.0488,0.0547 0.0185,-0.0191 0.0409,-0.0364 0.0469,0.004 0.008,0.0405 0.0155,0.12721 0.0195,0.16211 0.0113,0.37591 -0.003,0.75285 -0.002,1.12891 0.003,0.31729 0.002,0.63385 0.002,0.95117 -2.2e-4,0.12586 0,0.25109 0,0.37695 -1.9e-4,0.88388 -0.89276,0.88388 -0.89257,0 1e-5,-0.0613 3e-5,-0.12247 0,-0.18359 -0.19712,0.11656 -0.44518,0.028 -0.56055,-0.25781 -0.032,0.0984 -0.0803,0.20138 -0.17188,0.31836 -5.2e-4,0.0449 -0.004,0.0899 -0.004,0.13476 -0.11301,0.1663 -0.30399,0.61784 -0.65821,0.32617 -0.12851,-0.10582 -0.0687,-0.32557 -0.10351,-0.48828 -0.0345,-0.16195 0.0434,-0.12078 0.13867,-0.0234 -0.003,-0.0954 -0.004,-0.20651 0.043,-0.23437 0.0249,-0.0149 0.0554,-0.0161 0.0859,-0.0176 1.2e-4,-0.006 -1.2e-4,-0.0117 0,-0.0176 -0.0178,0.002 -0.0236,0.004 -0.0352,0.002 -0.0114,-0.002 0.0155,-0.0239 0.0195,-0.0352 0.005,-0.008 0.012,-0.0155 0.0176,-0.0234 0.004,-0.19276 0.006,-0.38547 0.0137,-0.57812 -10e-4,-0.0111 -0.002,-0.013 -0.004,-0.0254 0.002,-0.0123 0.004,-0.0247 0.006,-0.0371 5.6e-4,-0.0391 0.002,-0.0781 0.004,-0.11719 -0.0112,-0.005 -0.0156,-0.009 -0.0273,-0.0137 -0.0252,-0.16422 -0.0219,-0.33039 -0.0137,-0.4961 -0.0105,-0.0117 -0.0213,-0.0233 -0.0312,-0.0351 -0.0225,-0.11607 -0.009,-0.2358 0.01,-0.35156 0.005,-0.0171 0.008,-0.008 0.0117,-0.0195 -0.01,-0.006 -0.0214,-0.0123 -0.0234,-0.0195 -0.005,-10e-4 -0.0126,0.001 -0.0176,0 -0.0125,-0.004 0.008,-0.0208 0.0195,-0.0352 0.003,-0.009 -0.008,-0.0164 0,-0.0254 0.004,-0.005 0.01,-0.002 0.0137,-0.006 0.0112,-0.0257 0.0198,-0.0525 0.0312,-0.0781 -0.0164,-0.005 -0.0354,-0.006 -0.0508,-0.0137 -0.0408,-0.0193 0.0141,-0.089 0.0254,-0.13281 0.0188,-0.0858 0.044,-0.17246 0.0644,-0.25781 0.0302,-0.11985 0.0548,-0.2393 0.082,-0.35938 0.0349,-0.15312 0.0958,-0.26435 0.16406,-0.35742 0.003,-0.0251 0.009,-0.0528 0.0117,-0.0781 -0.017,-0.0586 -0.0366,-0.11643 -0.0449,-0.17773 -0.0113,-0.0737 0,-0.15021 0,-0.22461 v -0.35742 c 0,-0.44194 0.18698,-0.65921 0.39258,-0.65821 0.12037,8.4e-4 0.24333,0.086 0.3418,0.23633 0.01,-0.002 0.0193,-0.008 0.0293,-0.008 0.12627,0 0.25196,0.125 0.25196,0.375 v 0.30469 c 0.0596,10e-4 0.11629,0.0113 0.16796,0.043 0.009,-0.0999 0.0112,-0.18669 0.0254,-0.34766 0.009,-0.10016 0.0311,-0.18294 0.0586,-0.25781 v -0.75391 c 0,-0.25 0.12569,-0.375 0.25195,-0.375 z m 1.26563,5.9082 c -0.002,0.002 -0.004,-9.1e-4 -0.006,0.002 0.002,10e-4 0.005,0.002 0.006,-0.002 z m -95.92188,1.64258 c -0.62217,-0.0188 -1.612,0.0514 -2.07422,0.51367 -1.07444,1.07444 -1.15489,0.68693 -0.42578,2.28711 0.49912,0.0573 0.73367,-0.62899 2.28711,-1.00586 0,0 2.09986,0.53365 1.94141,-0.81054 -0.66741,-0.82422 -0.89297,-0.88757 -1.26172,-0.94727 -0.0922,-0.0149 -0.25941,-0.0308 -0.4668,-0.0371 z m -8.61328,2.41992 c -0.43096,-0.019 -0.9318,0.16181 -1.63672,0.53907 -1.34933,0.72215 -2.64517,0.7286 -5.37305,0.0469 -2.70544,-0.68337 -3.87136,-0.66969 -4.71484,0.0234 -2.38522,1.97956 -0.41012,5.26603 2.29492,3.81836 1.2011,-0.64282 1.87234,-0.53981 2.84961,0.4375 v 0.002 c 1.59636,1.59617 1.81193,1.5901 5.07031,-0.12305 3.42989,-1.80062 4.0602,-2.74595 2.72852,-4.07812 -0.42724,-0.42728 -0.78779,-0.64696 -1.21875,-0.66602 z m -16.12695,3.06446 c -0.61465,-0.0291 -1.57643,0.69563 -2.96289,2.17187 -1.18523,1.26195 -3.07966,2.51322 -4.20899,2.7793 -1.12928,0.26619 -2.54534,1.4063 -3.14844,2.5332 -0.60141,1.12691 -2.25006,2.76059 -3.6582,3.63086 -4.08741,2.52616 -4.76398,3.67592 -3.52539,5.99024 1.55282,2.90146 3.00007,2.45633 7.52149,-2.31446 2.23487,-2.35816 4.86515,-4.53962 5.84375,-4.84765 2.47298,-0.77798 5.02148,-4.62811 5.02148,-7.58789 0,-1.54196 -0.26816,-2.32636 -0.88281,-2.35547 z m 28.60742,12.99804 c -0.34362,-0.0412 -0.71076,0.13143 -0.91797,0.4668 -0.27636,0.44719 0.0601,0.81445 0.74609,0.81445 1.40523,0 1.61159,-0.48022 0.50196,-1.16601 -0.1024,-0.0633 -0.21554,-0.10149 -0.33008,-0.11524 z m -30.20703,8.56836 c -0.88148,-0.0137 -2.25771,1.0469 -3.32422,2.87305 -1.1746,2.01116 -1.30591,2.90862 -0.61523,4.19922 0.48122,0.90236 1.3879,1.64062 2.01171,1.64062 1.1031,0 2.79713,-4.50176 2.80469,-7.45898 0.003,-0.8499 -0.34807,-1.24566 -0.87695,-1.25391 z m 14.53906,1.21875 c -1.75245,0.0522 -4.44342,2.14301 -2.73633,4.47071 l 1.07422,2.33593 c 2.35374,1.73087 5.74172,1.1564 6.84375,-0.30078 0.28929,-0.38272 -0.40386,-3.42568 -0.83594,-4.12304 -0.63931,-1.03178 -2.5553,-2.04327 -2.79492,-1.94727 -0.40244,-0.3155 -0.96663,-0.45295 -1.55078,-0.43555 z m 28.29492,6.69336 c -0.86887,0 -1.27781,1.12765 -1.10547,2.59766 0.0641,0.54527 0.20928,1.13689 0.43946,1.73633 0.71667,1.86761 1.67175,1.5403 2.25195,-0.77149 0.59104,-2.35487 0.0526,-3.5625 -1.58594,-3.5625 z m -83.54101,2.46485 c -3.70488,5.7703 -3.6394,7.60956 -0.15429,15.30861 0.71562,0.59135 0.71467,1.577 0.57422,2.41016 -0.24945,1.47911 -3.1896,1.3075 -2.60547,-0.0742 0.25172,-0.59528 -1.42665,-2.67311 -1.83597,-3.09854 -3.15896,-4.84665 -2.1567,-11.40813 3.8417,-17.36133 1.97777,1.3064 -1.01648,2.17043 0.17981,2.81532 z m 9.82226,-1.09375 c 0.0822,-7.2e-4 0.16402,0.005 0.24414,0.0234 0.42733,0.0554 0.8225,0.2425 1.10742,0.5879 0.52411,0.62976 0.71939,1.52313 0.43555,1.98242 -0.79952,1.29369 -4.41992,1.0186 -4.41992,-0.33594 0,-1.21762 1.22065,-2.14132 2.38477,-2.24219 0.0831,-0.007 0.16582,-0.0149 0.24804,-0.0156 z m 36.22071,12.33593 c -2.0684,-0.01 -5.01797,0.87338 -7.28321,2.42383 -3.07324,2.10346 -6.77148,8.26196 -6.77148,11.27735 0,3.39704 2.3664,8.90014 4.63476,10.78125 1.3711,1.13703 3.03518,1.72597 4.53516,1.60351 2.03675,-0.16615 2.50507,-0.66288 3.33203,-3.5332 0.83781,-2.90801 0.76755,-3.70052 -0.53711,-6.13477 -1.47057,-2.74397 -1.47626,-2.83023 0.0684,-4.78515 0.86162,-1.09535 1.56641,-2.81224 1.56641,-3.81446 0,-1.00225 0.76551,-2.63683 1.70117,-3.63281 1.04561,-1.11284 1.50265,-2.33023 1.18555,-3.15625 -0.26748,-0.69704 -1.19061,-1.02339 -2.43164,-1.0293 z m -211.625,10.29297 c 1.41645,0 5.29945,1.7764 8.11718,3.71485 1.97039,1.3553 3.49149,1.85307 4.59766,1.50195 1.27802,-0.40562 1.82569,-0.0724 2.41016,1.46484 0.41594,1.09403 1.2706,2.28882 1.89843,2.6543 0.62784,0.36552 4.37431,4.6329 8.32618,9.48438 3.95014,4.85143 8.35509,9.98987 9.7832,11.41796 1.4281,1.4281 2.42378,3.04211 2.2168,3.58594 -0.2087,0.54388 -2.13459,1.62418 -4.2793,2.40235 -5.42829,1.96962 -14.82472,10.72156 -14.17578,13.20312 0.80016,3.05987 -1.68777,2.06232 -6.25196,-2.50781 -11.34275,-11.35752 -17.42661,-17.95421 -18.77734,-20.35742 -0.81487,-1.44983 -3.37407,-3.93987 -5.6875,-5.53321 -4.5204,-3.11331 -5.13232,-4.48077 -2.60742,-5.83203 0.88,-0.47097 1.59961,-1.52659 1.59961,-2.34765 0,-1.41759 11.41492,-12.85157 12.83008,-12.85157 z m 296.89257,8.35743 c 0.51732,0.0836 0.75902,0.80079 0.11914,1.54882 -2.80641,3.28067 -0.47487,0.35324 -2.1582,2.88477 -3.92844,5.78103 -3.30278,5.1769 1.81436,0.24414 0.98487,-0.97958 1.32207,-1.57859 2.18165,-2.77734 0.32673,-0.45712 0.71637,-0.63579 1.02929,-0.61915 0.52154,0.0294 0.83002,0.6082 0.28516,1.3711 -7.30501,8.18964 -13.90753,15.7627 -22.08196,21.42406 -0.144,0.0507 -0.88507,0.13267 -0.94727,0.10547 -0.0503,-0.0219 -0.0769,-0.0431 -0.12305,-0.0645 -0.15545,0.062 -0.30121,0.13747 -0.42578,0.2461 -6.72603,3.34811 5.43844,-9.6622 10.19402,-16.22921 0.33,-0.45555 0.72814,-0.59325 1.04297,-0.53125 0.52472,0.10326 0.81578,0.76164 0.16797,1.43945 v 0.002 c -1.38853,1.61992 3.98535,-2.31828 4.72263,-4.32042 0.14967,-0.28308 0.6704,-0.81873 0.83984,-1.07226 1.79195,-2.6812 -0.33004,-0.0107 2.38672,-3.17578 0.24431,-0.28449 0.49437,-0.43066 0.7168,-0.47266 0.0834,-0.0157 0.16242,-0.01 0.23632,-0.004 z m -42.79101,25.66992 c 0.25168,0.001 0.26953,0.49274 0.26953,1.38086 0,1.15324 -0.36081,2.31967 -0.80078,2.59179 -0.4402,0.27194 -0.79883,1.49681 -0.79883,2.72266 0,1.24123 -0.73755,2.89589 -1.66406,3.73437 -1.21769,1.10174 -1.54448,2.10823 -1.2168,3.74414 0.40112,2.00554 0.28938,2.15375 -1.07812,1.42188 -2.11631,-1.13261 -3.72454,-0.32697 -5.69141,2.85547 -2.39135,3.86929 -4.51448,3.45754 -5.92969,-1.15235 -0.50218,-1.63417 -0.92298,-1.81091 -3.29883,-1.36523 -2.27765,0.42731 -2.72032,0.27584 -2.70898,-0.92578 0.0214,-2.50568 1.45998,-3.83594 4.14844,-3.83594 1.70789,0 2.65986,-0.41205 2.76758,-1.19922 1.12813,-8.24681 2.27498,-9.5251 5.45507,-6.09375 2.71064,2.92487 4.63901,2.62175 7.95313,-1.25 1.55881,-1.82107 2.27016,-2.63062 2.59375,-2.6289 z m 5.06286,86.08394 c -10e-4,0.005 -0.003,0.0104 -0.004,0.0156 -4.87829,19.88416 9.21975,-21.06996 2.24815,1.99022 -0.85923,2.10501 0.17425,-0.29275 -0.76953,1.53125 -0.0741,0.14287 -0.10329,0.30444 -0.16406,0.45313 -0.1236,0.29707 -0.31471,0.52701 -0.25391,0.85156 -0.20863,0.87927 -0.29263,1.77036 -0.50977,2.65039 -0.10809,0.43767 -0.26211,0.86243 -0.36718,1.30078 -0.0336,0.14013 -0.056,0.28286 -0.0859,0.42383 0.002,0.0772 0.01,0.14902 0.008,0.23047 l 0.004,-0.002 c -0.01,0.26647 -0.12944,0.64892 -0.11524,0.94727 0.003,0.0125 0.008,0.0244 0.01,0.0371 0.004,0.0261 10e-4,0.10622 -0.004,0.0801 -0.007,-0.0355 -0.004,-0.0783 -0.006,-0.11719 -0.004,-0.0157 -0.007,-0.0313 -0.0117,-0.0469 -8.4976,45.6075 -35.63069,45.98922 -11.32368,12.74893 0.0433,-0.59579 0.0677,-1.13919 0.25195,-1.87695 0.21964,-0.87898 0.57953,-1.7181 0.96094,-2.54883 0.11451,-0.5479 0.23495,-1.09485 0.26758,-1.65625 0.3842,-1.25591 0.83466,-2.48576 1.20703,-3.74414 0.0591,-0.39314 0.10822,-0.7878 0.19531,-1.17578 0.0926,-0.41223 0.77199,-2.74316 0.89649,-3.18555 0.0256,-0.091 0.087,-0.31594 0.13671,-0.49219 0.004,-0.0155 0.008,-0.0314 0.0117,-0.0469 l 0.0117,-0.006 c 0.13255,-0.47205 0.28769,-1.04523 0.33008,-1.38281 0.0113,-0.10092 -0.0154,-0.2034 -0.0234,-0.30469 0.0265,-0.61618 0.20426,-1.20739 0.22656,-1.82617 0.0114,-0.33071 -0.0394,-0.66404 -0.0137,-0.99414 0.0265,-0.33071 0.11587,-0.65377 0.17188,-0.98047 0.12238,-0.38452 0.25546,-0.76485 0.38867,-1.14453 -87.15717,122.88921 29.36979,-118.74222 6.32532,-1.72914 z m -90.04138,-52.35543 c 0.54799,0.0649 0.80728,0.73105 0.14258,1.45703 -3.17251,5.03229 -7.49379,14.00693 -9.42571,19.63474 0.20481,0.23278 0.24339,0.65089 -0.0664,1.16992 -0.51439,0.85879 -1.02823,1.71758 -1.54297,2.57617 -6.91956,15.03785 -5.36955,2.66652 -2.15433,-1.41406 0.31748,-0.40293 0.58103,-0.8469 0.91015,-1.24023 0.36937,-0.42407 0.79571,-0.70326 1.03125,-0.86914 0.12662,-0.14249 0.20857,-0.32037 0.3125,-0.48047 6.67242,-15.37084 0.47914,-2.96763 -4.64459,3.10354 -2.68996,3.49172 -5.63075,6.77297 -8.79883,9.83594 -4.94869,5.80623 -4.66357,2.19733 -1.05273,-1.08789 6.06418,-5.47682 6.46602,-8.07471 9.52151,-12.12695 0.0669,-0.003 -0.0283,0.12991 -0.043,0.19531 0.49428,-0.79468 0.86558,-1.63655 1.49218,-2.35156 0.30048,-0.34318 0.69615,-0.5912 1.00196,-0.92969 0.30425,-0.33676 0.54709,-0.72532 0.82031,-1.08789 0.25193,-0.26387 0.50396,-0.5272 0.75586,-0.79102 3.28226,-4.98267 7.22293,-11.40904 10.73243,-15.12288 0.25784,-0.2723 0.52248,-0.41594 0.75781,-0.46094 0.0883,-0.0169 0.17172,-0.01 0.25,-0.01 z m -93.06836,11.44336 c 1.09321,0 4.66042,4.15944 4.69141,5.47071 0.0191,0.80827 -0.76536,0.93696 -3.22461,0.52148 -2.52191,-0.4261 -3.598,-0.23499 -4.80078,0.85352 -0.85251,0.76979 -1.55078,1.88671 -1.55078,2.47851 0,1.29649 -0.0583,1.29383 3.07617,0.20117 2.22853,-0.77688 2.79272,-0.64167 4.98047,1.19922 1.35706,1.14187 2.83185,2.07617 3.27734,2.07617 0.44549,0 2.41603,1.65412 4.38086,3.67578 2.85551,2.93798 3.95377,3.58091 5.4668,3.20118 1.5469,-0.38827 2.78145,0.41404 6.75586,4.38671 4.39193,4.39193 5.73753,6.33594 4.38476,6.33594 -0.26364,0 -2.2423,-1.80001 -4.39648,-4 -3.69715,-3.77578 -5.52539,-4.8714 -5.52539,-3.3125 0,0.37807 1.44117,2.32282 3.20117,4.32227 3.59851,4.08812 4.02577,5.95792 1.44727,6.33398 -1.17551,0.17144 -1.95855,1.04667 -2.375,2.65625 -0.46977,1.81573 -2.15284,3.42213 -6.91407,6.59961 -3.46136,2.31001 -6.50597,4.20117 -6.76562,4.20117 -0.25966,0 -1.30857,-1.10011 -2.33203,-2.44336 -1.02347,-1.3432 -2.97976,-3.7736 -4.34571,-5.40039 -3.0098,-3.5845 -9.11523,-13.20519 -9.11523,-14.36328 0,-0.45883 -1.61961,-2.99101 -3.59961,-5.625 -1.98,-2.63399 -3.60156,-5.33415 -3.60156,-6.00195 0,-0.66781 1.53039,-2.11481 3.40039,-3.21484 1.87,-1.10004 5.49127,-3.83439 8.04687,-6.07618 2.55561,-2.24179 5.002,-4.07617 5.4375,-4.07617 z m -20.71289,15.17188 c 1.79113,0.0362 5.06161,4.14765 4.3418,6.02343 -0.25458,0.66342 -0.82834,1.20508 -1.27148,1.20508 -0.94958,0 -4.35108,-6.35793 -3.73243,-6.97656 0.17953,-0.17952 0.40624,-0.25712 0.66211,-0.25195 z m 112.98828,8.18361 c 0.8864,0.0614 1.49894,0.38547 1.73828,1.01367 0.76528,1.99431 -3.34624,9.67038 -7.46874,13.94922 -2.1642,2.24531 -4.45112,4.06357 -5.08204,4.03711 -0.63087,-0.0247 -3.3965,-0.75765 -6.14648,-1.62891 -5.8687,-1.85926 -6.32592,-3.16541 -2.40039,-6.85937 6.50526,-6.12147 15.51832,-10.77769 19.35937,-10.51172 z m 7.47073,103.32227 c 2.28073,-0.006 4.96987,0.0651 8.19336,0.17968 12.80795,0.45525 13.23857,0.52832 15.37695,2.55664 1.78125,1.6896 2.19922,2.78957 2.19922,5.78125 0,3.9546 -2.69304,12.9888 -4.25977,14.28907 -1.96123,1.62776 -4.95139,1.68141 -7.74023,0.13672 -1.53997,-0.85297 -4.59884,-2.0796 -6.79883,-2.72461 -3.69914,-1.0845 -18.68538,-3.39441 -25.20117,-3.88477 -4.2985,-0.32353 -4.01808,-2.50784 1.12109,-8.73828 4.99357,-6.05286 7.22618,-7.56782 17.10938,-7.5957 z m -26.9395,27.45117 c -0.37825,1.20317 -0.94386,3.01561 -2.34179,3.36719 -0.16101,0.21732 -0.47614,0.66278 -0.67188,0.84375 -0.0601,0.0555 0.0518,-0.0635 0,0 -0.83189,1.25394 -1.74619,1.32286 -2.375,2.46865 -0.0514,0.0696 -0.14516,0.0988 -0.19726,0.16796 -1.14956,1.118 -2.48091,1.75665 -4.32422,3.26176 -1.43411,0.49353 -2.83623,2.00977 -4.33789,2.76953 -0.46409,0.175 -0.91436,0.39402 -1.39258,0.5254 -4.14918,1.02053 -6.49543,-0.0473 -8.11719,-1.08594 -0.35641,-0.29859 -0.56587,-0.74642 -0.92383,-1.05078 -0.24567,-0.20901 -0.5353,-0.36853 -0.7539,-0.60547 -0.20145,-0.21808 -0.32723,-0.49602 -0.49024,-0.74414 -1.56679,-1.096 -0.84056,-3.32378 -0.96289,-5.07422 -0.40782,-1.44348 1.51563,-1.49998 1.51563,0 v 2.27148 c 0.32042,2.06848 1.831,3.2197 3.0545,4.32813 1.63656,1.11119 3.09136,0.87352 5.30079,0.68359 1.01106,-0.0979 1.27792,-0.28416 2.22265,-0.66211 0.81785,-0.51991 1.45472,-1.27868 2.3086,-1.74804 0.57928,-0.319 1.1545,-0.35329 1.64062,-0.80079 0.29594,-0.58839 0.99022,-0.74525 1.43359,-1.16406 0.0479,-0.0453 -0.0103,-0.15856 0.0449,-0.19336 0.74596,-0.46382 1.27906,-0.6001 2.07031,-0.86523 1.49933,-1.66579 2.9933,-4.00926 4.93161,-4.98242 0.0601,-0.0507 0.0468,-0.15041 0.082,-0.22071 0.32504,-0.65034 0.62974,-1.22763 0.83399,-1.93164 3.47428,-5.51412 9.87113,-5.91573 1.44948,0.44147 z m 35.12895,19.52544 c 0.15804,0.35045 -0.0385,-0.0895 0.78711,1.42187 0.29367,0.53738 0.33245,1.21512 1.00195,0.98438 1.27136,0.21846 1.42187,0.58898 2.04492,1.60937 0.45308,0.74257 -0.0715,-0.15543 0.45508,0.48047 0.0896,0.10823 0.16143,0.23038 0.23633,0.34961 0.23082,-0.0599 0.49803,-0.006 0.73828,-0.0488 0.45646,-0.0813 0.9106,-0.18084 1.35938,-0.29687 1.41018,-0.36548 2.16988,-0.64996 3.55859,-1.11719 1.00755,-0.40943 2.00986,-0.87002 2.9668,-1.38672 0.21316,-0.11527 0.55458,-0.71277 0.64648,-0.83398 0.63946,-0.3035 0.8977,-0.86822 1.51172,-1.20899 1.40319,-0.77881 1.29822,-0.37579 2.63281,-1.35937 0.25361,-0.18709 0.43476,-0.45542 0.65235,-0.6836 0.21921,-0.34479 0.62123,-0.59058 0.83984,-0.93554 0.0382,-0.0574 0.0199,-0.13583 0.0312,-0.20313 0.15383,-0.17839 0.28772,-0.37539 0.46094,-0.53515 1.96364,-1.78576 3.80583,-1.80551 2.73439,-0.0665 -0.16252,0.14362 -0.38806,0.19392 -0.58203,0.29102 -0.0189,-0.034 -0.0154,-0.11043 -0.0547,-0.10743 -0.93154,0.63014 -1.4365,1.67739 -2.36132,2.63088 -0.32089,0.30728 -0.60327,0.66086 -0.96289,0.92188 -1.54088,1.1184 -1.10939,0.56758 -2.49024,1.26562 -0.57059,0.28838 -0.39785,0.371 -0.9082,0.76758 -0.0865,0.0673 -0.19943,0.0926 -0.29883,0.13867 -0.15043,0.19805 -0.61277,0.8251 -0.79102,0.99219 -0.36661,0.34394 -0.5165,0.31387 -0.95507,0.53516 -2.14156,1.07988 0.0332,0.10914 -2.5918,1.21484 -1.42012,0.47668 -2.27167,0.79368 -3.7207,1.16211 -0.71112,0.18066 -2.23896,0.6294 -3.06055,0.31445 -0.20901,-0.0801 -0.33628,-0.29726 -0.50391,-0.44531 -0.24264,-0.53722 0.0747,0.0879 -0.5957,-0.70508 -0.38256,-0.45248 -0.31364,-1.03661 -0.96289,-1.22461 -1.55788,-0.0888 -1.63025,-0.43354 -2.33398,-1.72656 -1.14012,-2.09175 -0.23838,-0.19591 -1.07422,-2.03125 0.11111,-0.37228 0.21417,-0.74759 0.33398,-1.11719 0.0537,-0.16478 0.29613,-0.18137 0.42774,-0.29296 3.89656,-3.79756 4.28744,-4.05355 6.41408,-9.31834 0.32012,-0.38363 0.50505,-0.9478 0.96094,-1.15235 0.0967,-0.0434 0.22805,-0.0567 0.36328,-0.0547 6.51906,-5.27038 -3.28736,8.7191 -6.91014,11.77152 z m 4.66602,5.05464 c 0.002,0.003 0.004,0.007 0.006,0.01 0.18053,0.0282 0.1223,0.0364 -0.006,-0.01 z"
       inkscape:connector-curvature="0"
       sodipodi:nodetypes="cccccccccccccccscccccccccccccsccccscccscccccccccccccccscccccccscscccscsscsscscscssccccccccscccccccscccccccccccccsccsscccscccscsccscscscscccccccccccccscccsccscccssssccccsscccccssccccccccccccccccccccccccccccccccsccccccsccccccssccccsscccccccccccccccccccccccccccccccccccsccccccccscccccccccccccccccccccccccccccccccccccccccccccccssccssccccscccccccccccccccccccccccccccccsccscccscccccsccscccccsscccscccccccccccsccccsssccccsccccscccccccccscccssccccccccccccccccccccccccscccccccsccccccccccccccccccccccccccccccccccccccsccccccccccccccccccccscccsccscccscsccccsccsssccsccsccccccccccccscccccccccccccccccccccsccccccccccccccccccccccccccccccccccccccccccccccccccccccccc"
       transform="scale(0.26458333)" />
    <path
       style="stroke-width:0.26458332"
       d="m 133.50995,103.29902 c 0.0752,0.12024 0.0921,0.81194 -0.31976,1.11772 -0.33922,0.0709 -0.93518,-0.0324 -1.0713,-0.29734 -0.12066,-0.23511 -0.42481,-0.94794 0.22155,-1.29047 0.48096,-0.16537 1.03723,0.25866 1.16951,0.47009 z"
       id="path3763"
       inkscape:connector-curvature="0"
       sodipodi:nodetypes="scscs" />
    <path
       d="m 107.97585,192.60862 c -2.36869,-0.19102 -6.46172,-0.16033 -8.322286,-0.55098 -3.020758,-0.63427 -4.622783,-1.89743 -6.721733,-2.95305 -0.899929,-0.45261 -0.641837,-0.92111 -0.406682,-0.92461 0.0781,-0.001 1.426453,0.6871 2.649855,1.06749 1.806731,1.10218 2.170291,1.56996 5.022996,1.97715 1.98034,0.53235 7.53407,0.31186 10.10196,0.30771 1.94937,-0.003 2.61211,-0.032 3.76084,-0.1639 3.5732,-0.4102 6.76831,-1.18324 10.63439,-2.57293 0.94502,-0.3397 1.77811,-0.61764 1.85126,-0.61764 0.22923,0 0.68645,0.50026 -0.18864,0.99313 -1.64026,0.92383 -4.2507,1.70901 -6.71913,2.11379 -2.47206,0.40538 -5.26719,0.98051 -7.65112,1.15384 -0.9282,0.0674 -3.30404,0.22704 -4.01171,0.16994 z"
       id="path3802"
       inkscape:connector-curvature="0"
       style="fill:#ffffff;stroke-width:0.07812596"
       sodipodi:nodetypes="cccccccccsssccc" />
  </g>
</svg>
