<?xml version="1.0" encoding="UTF-8" standalone="no"?>
<!-- Created with Inkscape (http://www.inkscape.org/) -->

<svg
   xmlns:dc="http://purl.org/dc/elements/1.1/"
   xmlns:cc="http://creativecommons.org/ns#"
   xmlns:rdf="http://www.w3.org/1999/02/22-rdf-syntax-ns#"
   xmlns:svg="http://www.w3.org/2000/svg"
   xmlns="http://www.w3.org/2000/svg"
   xmlns:sodipodi="http://sodipodi.sourceforge.net/DTD/sodipodi-0.dtd"
   xmlns:inkscape="http://www.inkscape.org/namespaces/inkscape"
   width="210mm"
   height="297mm"
   viewBox="0 0 210 297"
   version="1.1"
   id="svg3736"
   inkscape:version="0.92.1 r15371"
   sodipodi:docname="Taiwan.svg">
  <defs
     id="defs3730" />
  <sodipodi:namedview
     id="base"
     pagecolor="#ffffff"
     bordercolor="#666666"
     borderopacity="1.0"
     inkscape:pageopacity="0.0"
     inkscape:pageshadow="2"
     inkscape:zoom="11.313709"
     inkscape:cx="-10.350149"
     inkscape:cy="1085.8075"
     inkscape:document-units="mm"
     inkscape:current-layer="layer1"
     showgrid="false"
     inkscape:window-width="1920"
     inkscape:window-height="1001"
     inkscape:window-x="-9"
     inkscape:window-y="-9"
     inkscape:window-maximized="1" />
  <metadata
     id="metadata3733">
    <rdf:RDF>
      <cc:Work
         rdf:about="">
        <dc:format>image/svg+xml</dc:format>
        <dc:type
           rdf:resource="http://purl.org/dc/dcmitype/StillImage" />
        <dc:title />
      </cc:Work>
    </rdf:RDF>
  </metadata>
  <g
     inkscape:label="圖層 1"
     inkscape:groupmode="layer"
     id="layer1">
    <path
       inkscape:connector-curvature="0"
       id="path3694"
       style="fill:#878787;fill-opacity:1;fill-rule:nonzero;stroke:none;stroke-width:0.08422074"
       d="m 0.8862073,14.215199 0.06704,0.01701 0.05424,0.0051 0.107887,-0.01701 0.03226,0.01432 0.04152,0.06367 0.03731,0.133237 0.0093,0.079 -0.0042,0.04674 -0.02729,0.05424 0.04936,0.03226 0.706948,0.169705 0.06106,0.02207 0.02459,0.0272 0.0128,0.0144 0.05601,0.04 0.01777,0.01937 v 0.03487 l -0.01524,0.02459 -0.01701,0.02198 v 0.01196 l 0.03226,0.01019 0.04666,-0.0051 0.04169,-0.01179 0.01946,-0.0077 0.05432,0.115384 0.155302,0.214763 0.06881,0.05432 0.167936,0.01693 0.169705,-0.03739 0.147723,-0.0763 0.1010648,-0.09079 0.049269,-0.08826 0.032088,-0.079 0.01196,-0.01524 0.029729,-0.0144 0.029645,-0.02215 -0.051318,-0.04645 -0.051676,-0.04341 -0.042704,-0.06628 -0.03428,-0.09248 0.03428,0.09248 0.017473,-0.05894 0.035909,0.03334 0.038081,0.05395 0.054238,-0.01723 h 0.046743 l 0.034699,-0.0077 0.029729,-0.01449 0.093401,-0.07892 0.073862,-0.02712 0.4828375,-0.08911 0.1375325,-0.04918 0.071251,-0.03647 0.056765,-0.04927 0.064597,-0.04245 0.2851719,-0.09079 0.1111722,-0.09593 0.1078011,-0.125574 0.1680203,-0.269085 0.033939,-0.09332 0.010196,-0.04405 -0.00252,-0.01971 0.039838,-0.01272 0.038993,-0.03394 0.03234,-0.04489 0.01196,-0.04413 0.010097,-0.05946 0.024592,-0.03133 0.027204,-0.03234 0.022059,-0.04405 -0.015327,-0.03487 -0.011961,-0.02712 v -0.0272 l 0.011946,-0.02459 0.032339,-0.04405 0.086496,-0.174842 0.021988,-0.08405 0.057017,-0.02712 0.011794,-0.02889 0.02973,-0.08666 0.056848,-0.05929 0.041607,-0.05609 -0.014396,-0.08397 0.1102435,0.02207 0.08658,-0.02459 0.071251,-0.05188 0.063671,-0.0662 0.020388,-0.03731 0.019549,-0.04144 0.029644,-0.03226 0.1028355,-0.02973 0.025349,-0.04161 0.023826,-0.09584 0.089022,-0.160441 0.03731,-0.08574 0.011961,-0.10098 0.029646,-0.06199 0.3175116,-0.349601 0.049184,-0.08405 0.044133,-0.152776 0.1433418,-0.246177 0.041691,-0.18916 0.034784,-0.09854 0.05171,-0.04228 0.00936,-0.05188 0.1850324,-0.213921 0.04169,-0.03891 0.01516,-0.04245 0.00683,-0.155303 0.02046,-0.04666 0.077988,-0.06123 0.017857,-0.04245 0.00926,-0.046574 0.024678,-0.02198 0.034782,-0.014487 0.037312,-0.027206 0.046742,-0.044216 0.041521,-0.073693 0.088349,-0.2469353 0.064344,-0.1180773 0.041604,-0.1204356 0.032256,-0.042447 0.1086463,-0.105276 0.019624,-0.045058 0.024595,-0.1077183 0.024592,-0.046743 0.086494,-0.066955 0.011961,-0.021984 0.01516,-0.041605 0.096012,-0.1257412 0.016926,-0.04649 0.036551,-0.1334056 0.069568,-0.1477234 0.08144,-0.1280156 0.068809,-0.140143 0.02973,-0.1900018 -0.00773,-0.088348 -0.041605,-0.1824221 -0.015255,-0.157914 -0.036467,-0.063587 -0.012725,-0.049185 0.015255,-0.040005 0.023826,-0.031244 0.00766,-0.027286 -0.046742,-0.022907 v -0.028805 l 0.02973,-0.056849 -0.064597,-0.1230466 0.064597,-0.2097935 0.014324,-0.011792 0.024678,-0.00758 v 0 c 0.010884,-0.027307 -0.053489,-0.041601 -0.053489,-0.041601 l -0.029644,-0.015158 -0.012725,-0.046743 0.021988,0.00758 0.042447,-0.044048 0.036467,-0.056932 -0.00244,-0.027118 0.039752,-0.010188 0.024595,-0.027202 0.05188,-0.1350057 0.00673,-0.03731 L 8.5607487,6.363212 8.5930047,6.319165 8.6202087,6.264843 8.6099427,6.215489 8.5905807,6.166305 8.5777847,6.107772 8.5974087,6.067767 8.6397697,6.055975 8.6787647,6.033907 8.6889587,5.97192 8.6465947,5.922736 8.5803117,5.865966 v 0 l 0.077651,-0.016795 0.010335,-0.042212 -0.1227572,-0.049712 -0.022059,-0.02451 0.015327,-0.0443 0.046575,-0.01693 0.05946,-0.0076 0.044133,-0.02198 v 0 L 8.6524574,5.584582 c 0,0 -0.058661,-0.034946 -0.096733,-0.036146 L 8.4921394,5.521316 8.4793434,5.484006 C 8.411004,5.4780875 8.3763569,5.4659065 8.3537644,5.461936 l -0.095927,-0.01449 -0.017022,-0.079 0.039079,-0.09323 0.07386,-0.0518 L 8.2942954,5.161426 8.2654084,5.107106 8.2179904,4.80248 8.2061254,4.77267 8.1645204,4.69637 8.1543264,4.6615 8.1347984,4.64205 8.1152694,4.62681 8.1051704,4.60719 8.1101404,4.57089 8.1348164,4.5164 V 4.46974 L 8.1194894,4.4011 8.0482384,4.245629 7.9719334,4.126878 7.9303294,4.041228 7.9081744,3.952038 7.9251964,3.888368 7.9574524,3.817198 7.9328604,3.745948 7.8811474,3.681268 7.7410046,3.550726 7.6595646,3.459846 7.6001886,3.348675 7.5780336,3.235819 v 0 L 7.5882229,3.2087 7.3862618,3.053229 h -0.034698 l -0.027287,0.01019 -0.024592,0.0027 -0.044049,-0.02046 -0.034867,-0.02198 -0.073777,-0.06367 -0.071334,-0.04674 -0.1553025,-0.07369 -0.066283,-0.04506 -0.010099,-0.01954 -0.014491,-0.05862 -0.017857,-0.01002 -0.016927,-0.0052 -0.049268,-0.02965 -0.1255751,-0.09854 -0.032256,-0.04405 -0.066113,-0.15025 -0.084052,-0.106034 -0.02712,-0.0443 -0.3072366,-0.790833 0.00936,-0.04657 0.03731,-0.05449 0.00926,-0.04666 V 1.125279 l 0.00766,-0.05188 v -0.02973 l -0.00766,-0.03916 -0.085568,-0.140817 0.019457,-0.107718 -0.00253,-0.0347 -0.056934,-0.04674 -0.050784,-0.01533 -0.037396,0.03739 -0.00506,0.100981 L 5.8170621,0.767845 5.6965434,0.713525 5.5930347,0.634605 5.5217007,0.53194 l -0.00253,0.08835 0.019457,0.139975 0.0026,0.1281 -0.061145,0.05693 -0.051627,0.03899 -0.040005,0.09163 -0.024592,0.112856 0.016926,1.015028 -0.024592,0.248704 -0.022059,0.08658 L 5.186578,2.794525 5.115244,3.050808 5.085431,3.240979 5.033802,3.331599 4.9106718,3.487071 l -0.039079,0.0763 -0.08144,0.207098 -0.032172,0.04161 -0.041605,0.01937 -0.1647371,0.18259 -0.2494619,0.164736 -0.073862,0.06957 -0.073777,0.09323 -0.031416,0.0518 -0.020468,0.04935 -0.00244,0.04413 0.010104,0.09584 -0.00767,0.03984 -0.049185,0.05853 -0.2139208,0.179981 -0.019453,0.04245 -0.1602724,0.225711 -0.032424,0.0918 -0.046574,0.19935 -0.071335,0.130627 -0.027202,0.08826 -0.01693,0.03487 -0.032256,0.03394 -0.073862,0.05424 -0.032172,0.03226 -0.073862,0.1528606 -0.014397,0.1476575 0.00252,0.1553027 -0.024591,0.1746741 -0.032256,0.093485 -0.040005,0.076472 -0.1077183,0.1432595 -0.034783,0.075715 -0.2409555,1.3866104 -0.073946,0.1502497 -0.125573,0.6135481 -0.09593,0.2631901 -0.05171,0.2487038 -0.0051,0.099212 -0.01272,0.053396 -0.05432,0.08919 -0.01945,0.054322 0.0024,0.049269 0.01272,0.021896 0.02215,0.014487 0.02215,0.034867 0.02703,0.081441 0.0026,0.071421 -0.02207,0.06611 -0.113783,0.167262 -0.04405,0.187476 -0.04422,0.09332 -0.03731,0.03731 -0.106118,0.07639 -0.01179,0.02215 0.01179,0.03226 -0.02207,0.03133 -0.07125,0.05693 -0.09845,0.133237 -0.08919,0.08565 -0.01945,0.03739 v 0.01701 l 0.01272,0.02198 0.0144,0.02207 0.01272,0.01533 0.01449,0.02712 -0.0077,0.01945 -0.0144,0.01962 -0.01019,0.02703 -0.0068,0.09601 -0.01272,0.04918 -0.01945,0.03478 -0.0171,0.0416 0.0068,0.106118 -0.0042,0.04927 -0.108561,0.122963 -0.0934,0.05693 -0.03984,0.03647 0.0076,0.04245 0.0272,0.04161 0.01179,0.04413 -0.0067,0.03975 -0.09172,0.0518 -0.0144,0.08574 0.02207,0.100996 0.03908,0.07647 -0.0272,0.01945 -0.04152,0.01272 -0.028137,0.01027 -0.035834,0.01144 0.012402,0.0272 0.073551,2.76e-4 0.09845,0.06199 0.05432,0.09584 0.0026,0.123119 -0.02215,0.06114 -0.0024,0.0619 0.05171,0.236844 0.0026,0.112845 -0.0078,0.118004 -0.02459,0.118737 -0.03394,0.103606 -0.0475,0.07386 -0.287691,0.347074 -0.08405,0.07395 -0.319956,0.157839 0.03226,0.03891 z"
       sodipodi:nodetypes="cccccccccccccccccccccccccccccccccccccccccccccccccccccccccccccccccccccccccccccccccccccccccccccccccccccccccccccccccccccccccccccccccccccccccccccccccccccccccccccccccccccccccccccccccccccccccccccccccccccccccccccccccccccccccccccccccccccccccccccccccccccccccccccccccccccccccccccccccccccccccccccccccccccccccccccccccccccccccccccccccccccccccccccccccccccccccccccccccccccccccccccccccccccccccccccccc" />
  </g>
</svg>
